<svg version="1.1" id="Layer_1" xmlns="http://www.w3.org/2000/svg" xmlns:xlink="http://www.w3.org/1999/xlink" x="0px" y="0px"
	 width="100%" viewBox="0 0 1024 1024" enable-background="new 0 0 1024 1024" xml:space="preserve">
<path fill="#157230" opacity="1.000000" stroke="none" 
	d="
M385.056854,854.185059 
	C374.920593,849.191711 368.019836,841.317200 362.765594,832.079529 
	C347.862427,805.877625 333.390442,779.430176 318.454071,753.247559 
	C296.914825,715.490540 275.049774,677.919556 253.454346,640.194397 
	C241.705582,619.670532 229.965408,599.132996 219.688736,577.809082 
	C215.675598,569.481873 212.789886,560.937805 213.470322,551.434082 
	C214.401108,538.433228 220.084564,528.167236 230.719437,520.799316 
	C244.569443,511.203979 259.947235,506.368042 276.862213,507.783752 
	C287.522217,508.675964 295.408539,514.743652 301.493652,523.181580 
	C316.608795,544.140930 329.780182,566.373535 343.758423,588.077209 
	C358.821655,611.465515 373.617706,635.035706 391.048218,656.789246 
	C392.993164,659.216614 394.611694,662.053711 397.622833,663.456482 
	C399.914368,662.916077 400.112854,660.877563 400.736267,659.253479 
	C428.032257,588.145630 462.494446,520.535278 501.166931,455.051270 
	C544.138489,382.287659 593.791931,314.252960 648.962708,250.287384 
	C674.980835,220.121658 702.660645,191.507553 732.651611,165.192230 
	C743.048279,156.069733 754.671570,152.945511 767.818115,157.275391 
	C783.518799,162.446457 790.781189,178.449966 784.801880,193.854004 
	C782.066040,200.902191 777.635925,206.995529 773.641357,213.323761 
	C732.564819,278.398468 691.554688,343.527039 654.320801,410.906036 
	C592.746521,522.331848 535.838257,636.063232 486.842529,753.646423 
	C477.301666,776.543152 467.975922,799.529907 458.350281,822.390625 
	C453.137665,834.770569 445.705627,845.711670 433.610504,852.215637 
	C418.051788,860.582092 401.789551,860.735535 385.056854,854.185059 
z"/>
<path fill="#157230" opacity="1.000000" stroke="none" 
	d="
M456.149109,350.078644 
	C468.145538,382.983276 468.966248,415.821167 458.360535,448.770111 
	C452.365479,467.394958 442.718109,484.027039 429.033234,498.172913 
	C428.009979,499.230621 427.125854,500.535797 424.725220,500.483063 
	C423.721436,493.755188 422.843628,486.898804 421.659363,480.095734 
	C415.112244,442.485748 405.691650,405.783234 383.741364,373.776489 
	C364.429626,345.617065 339.854340,322.468140 312.415161,302.302826 
	C310.900177,301.189453 309.451660,299.590576 307.071960,300.126190 
	C306.922729,303.113251 309.165253,304.608887 310.795990,306.328156 
	C331.498871,328.155060 350.336823,351.385986 365.302429,377.610382 
	C384.738770,411.668915 398.558746,447.934875 408.313354,485.836182 
	C411.714172,499.050018 414.356049,512.412476 415.974121,525.944824 
	C416.756134,532.484802 415.379791,538.877747 412.268738,544.772278 
	C410.088165,548.903809 406.543488,550.634521 401.936646,550.292786 
	C397.308716,549.949524 395.434845,546.690186 394.294281,542.838074 
	C393.589386,540.457336 392.960358,538.002563 392.733673,535.540833 
	C391.748810,524.844727 386.268036,517.204224 377.033600,512.122559 
	C364.838257,505.411530 351.342346,502.055878 338.357147,497.401306 
	C316.380371,489.523590 295.560120,479.737946 278.845642,462.835205 
	C263.330811,447.145630 254.006989,427.990417 247.756912,407.142303 
	C240.999741,384.602631 238.797470,361.477448 239.888062,338.083984 
	C240.275665,329.769257 240.625778,321.466492 240.713623,313.146576 
	C240.949066,290.847290 233.660416,270.311340 225.689041,249.990585 
	C220.729507,237.347672 222.890350,233.460175 236.514343,231.482758 
	C249.427994,229.608444 262.087860,231.892014 274.672089,233.937012 
	C303.982056,238.699997 332.625244,246.096802 359.589874,258.831329 
	C390.030457,273.207397 417.517944,291.717590 438.915161,318.203613 
	C446.520538,327.617737 451.403717,338.618134 456.149109,350.078644 
z"/>
</svg>